<?xml version="1.0" encoding="UTF-8"?>
<svg xmlns="http://www.w3.org/2000/svg" xmlns:xlink="http://www.w3.org/1999/xlink" viewBox="0 0 50 50" width="50px" height="50px">
<g id="surface48708212">
<path style=" stroke:none;fill-rule:nonzero;fill:rgb(100%,100%,100%);fill-opacity:1;" d="M 25 8 C 15.609375 8 8 15.609375 8 25 C 8 34.390625 15.609375 42 25 42 C 34.390625 42 42 34.390625 42 25 C 42 15.609375 34.390625 8 25 8 Z M 25 9 C 33.835938 9 41 16.164062 41 25 C 41 32.316406 36.085938 38.472656 29.378906 40.378906 C 29.246094 40.171875 29.144531 39.933594 29.152344 39.648438 C 29.179688 38.59375 29.152344 36.128906 29.152344 35.222656 C 29.152344 33.671875 28.167969 32.570312 28.167969 32.570312 C 28.167969 32.570312 35.878906 32.65625 35.878906 24.429688 C 35.878906 21.257812 34.222656 19.605469 34.222656 19.605469 C 34.222656 19.605469 35.09375 16.214844 33.917969 14.78125 C 32.605469 14.636719 30.25 16.035156 29.242188 16.691406 C 29.242188 16.691406 27.652344 16.039062 25 16.039062 C 22.351562 16.039062 20.757812 16.691406 20.757812 16.691406 C 19.75 16.035156 17.398438 14.636719 16.082031 14.78125 C 14.910156 16.214844 15.78125 19.605469 15.78125 19.605469 C 15.78125 19.605469 14.121094 21.253906 14.121094 24.429688 C 14.121094 32.65625 21.832031 32.566406 21.832031 32.566406 C 21.832031 32.566406 21.054688 33.441406 20.882812 34.730469 C 20.351562 34.917969 19.617188 35.148438 18.914062 35.148438 C 17.242188 35.148438 15.96875 33.519531 15.503906 32.769531 C 15.042969 32.027344 14.101562 31.402344 13.222656 31.402344 C 12.644531 31.402344 12.359375 31.691406 12.359375 32.023438 C 12.359375 32.355469 13.171875 32.585938 13.707031 33.199219 C 14.835938 34.492188 14.816406 37.402344 18.839844 37.402344 C 19.3125 37.402344 20.164062 37.292969 20.847656 37.199219 C 20.84375 38.144531 20.832031 39.0625 20.847656 39.648438 C 20.855469 39.929688 20.753906 40.171875 20.617188 40.378906 C 13.914062 38.472656 9 32.316406 9 25 C 9 16.164062 16.164062 9 25 9 Z M 25 9 "/>
</g>
</svg>
